<svg width="170" height="166" viewBox="0 0 170 166" fill="none" xmlns="http://www.w3.org/2000/svg">
<g clip-path="url(#clip0_169_1376)">
<path d="M103.073 20.3229C108.883 22.1288 112.526 19.5989 115.465 15.6719C115.416 9.84807 115.3 4.29688 109.925 0.761719H108.917C106.855 5.58884 109.175 9.42783 112.199 13.4258C108.156 14.5446 104.422 15.5782 103.073 20.3229Z" fill="#3AABE2"/>
<path d="M67.1852 19.6812C65.8138 15.5867 61.9208 14.6269 58.1585 13.0993C61.705 9.28018 63.2895 5.4128 61.5176 0.761719H60.5096C55.2821 4.43033 54.9783 9.94178 54.9556 15.564C59.5499 21.101 62.2303 22.0238 67.1852 19.6812Z" fill="#3AABE2"/>
<path d="M122.666 19.372C118.69 18.9404 115.377 20.2096 113.077 23.8328C119.375 29.8979 124.298 20.1869 131.011 23.5489L126.806 19.531C127.538 10.9131 127.118 9.65526 122.478 6.61133C119.678 9.97328 121.093 13.4658 122.078 16.9357C122.725 17.515 123.094 18.2078 122.666 19.372Z" fill="#3AABE2"/>
<path d="M57.2783 23.7227C54.9727 19.8695 51.1649 19.3669 47.1357 18.9608C48.5554 14.7272 51.1593 10.9279 47.7717 6.38477C42.3767 9.84042 43.1178 14.7414 43.8873 20.4317L39.7871 23.5551C46.2072 20.2415 51.4205 30.1882 57.2783 23.7227Z" fill="#3AABE2"/>
<path d="M72.3899 9.16434C67.9802 6.81041 64.8965 7.7446 62.2842 11.4359C66.7819 13.6223 68.0256 13.3639 72.3899 9.16434Z" fill="#3AABE2"/>
<path d="M108.309 11.6947C103.817 6.97829 101.415 6.66594 98.5498 10.133C101.324 12.5408 104.209 13.9606 108.309 11.6947Z" fill="#3AABE2"/>
<path d="M52.0022 15.3887L49.6738 16.5813C50.733 16.8141 51.8034 16.905 52.0022 15.3887Z" fill="#3AABE2"/>
<path d="M122.007 16.9475L122.087 16.9789C122.077 16.9662 122.069 16.9529 122.061 16.939L122.087 16.9789V16.9475L122.058 16.9219L122.007 16.9475Z" fill="#3AABE2"/>
<path d="M122.007 16.9474L117.328 15.0449C119.398 16.9275 120.394 17.9014 122.007 16.9474Z" fill="#3AABE2"/>
<path d="M158.983 92.522C158.316 90.2987 159.074 88.6546 159.968 86.8913C164.673 84.597 169.815 82.5384 170 75.7236C165.59 74.8718 162.825 77.6942 159.599 80.2412V73.9603C163.759 70.5841 169.029 67.8781 167.649 60.8561C163.316 61.424 160.922 64.1499 158.585 67.1455C157.299 65.0045 157.131 63.0368 156.933 60.9526C160.644 57.2613 165.15 53.8369 162.649 47.2152C158.307 48.1948 156.714 51.5766 154.891 54.967C153.701 52.7351 152.705 50.8213 152.483 48.4362C155.039 44.1996 159.426 40.1307 155.357 34.3211C151.515 36.215 150.359 39.4918 149.394 43.575L145.436 37.4473C147.562 32.7111 150.507 28.077 146.097 23.0568C142.585 25.283 142.224 28.6904 141.58 32.1687C139.419 30.5474 137.692 29.298 136.863 27.0917C138.567 22.2987 139.595 17.5823 135.091 13.5332C130.616 17.3154 133.064 22.0573 132.354 26.345C128.379 25.8651 124.937 26.4955 122.104 29.8318C127.061 34.517 131.993 31.5952 136.662 30.3146C138.649 31.6662 140.154 33.0376 141.296 35.4739C137.144 34.5766 133.561 34.1535 130.259 36.9703C134.367 42.5158 139.578 40.9768 144.587 39.9575C146.492 41.6299 147.554 43.6119 148.88 46.3293C144.649 44.2678 141.006 42.8764 137.184 45.804C140.307 52.065 146.097 50.8242 150.782 51.5454C152.094 53.0588 152.807 54.4275 152.671 56.2817C149.042 55.6683 145.898 52.968 142.292 55.5377C144.07 62.3127 150.43 61.8385 154.692 63.6331C156.26 65.8337 156.308 67.827 156.521 70.4478C153.219 66.8417 150.146 64.5474 145.614 65.8621C146.728 71.3849 146.728 71.3849 156.822 76.2745C157.422 78.152 157.456 80.1648 156.918 82.0613C153.965 78.7164 151.262 75.8684 146.651 76.4704C146.534 83.7679 152.12 86.1417 156.989 88.8222C156.572 90.8978 156.257 92.4652 155.777 94.8447C153.423 90.6423 151.234 87.3172 146.506 86.9623C144.663 94.1604 150.041 97.3321 154.264 101.182C153.253 102.917 153.659 104.959 151.839 106.455C150.89 101.824 148.94 98.4082 144.206 96.9147C141.122 103.897 145.844 108.034 149.357 112.296C148.886 114.065 148.357 115.42 146.637 116.462C145.734 112.327 144.467 108.491 140.271 106.441C135.994 112.901 139.703 117.836 142.826 122.851C141.849 123.947 141.639 125.491 139.68 125.574C138.675 121.973 138.601 117.751 134.663 115.414C129.324 120.886 131.917 126.457 134.134 131.809C132.868 133.513 131.8 134.873 129.591 135.83C131.48 130.895 131.037 126.877 127.814 123.279C122.856 127.377 122.592 128.53 123.938 139.978C123.086 140.492 122.444 141.634 120.735 141.114C120.704 137.38 122.314 133.308 119.52 129.577C112.313 132.899 112.841 139.413 112.759 145.217C111.279 146.731 109.945 147.404 107.994 147.341C111.402 141.764 111.711 139.919 110.226 134.532C102.417 136.392 102.114 143.386 100.7 148.395C90.023 154.627 80.0195 154.528 69.6696 148.423C68.3691 143.076 67.8041 136.477 60.0154 134.436C58.4111 139.283 59.5724 143.374 62.5709 147.406C60.2596 147.233 58.7717 146.705 57.6188 144.876C57.6756 139.098 57.9028 132.899 50.9262 129.58C48.0696 133.288 49.6512 137.352 49.7165 141.202C47.9078 141.486 46.9821 140.714 46.2666 139.183C47.905 133.365 48.6347 127.558 42.4106 122.973C39.6563 126.894 39.0571 130.801 40.3406 135.287C38.2138 134.436 37.0581 133.351 36.4732 131.389C38.5205 126.116 40.9624 120.585 35.4283 115.275C32.0805 118.114 31.47 121.905 30.7573 125.911C28.9684 125.111 28.1137 124.04 27.7418 122.444C31.0185 117.504 34.3663 112.56 29.8969 106.308C26.0239 108.718 24.5843 112.339 23.6501 116.933C22.2985 115.136 21.1116 114.017 21.157 111.913C24.9619 107.852 29.153 103.647 26.0381 96.7869C21.3302 98.6184 19.4902 102.128 18.0478 106.157C17.4997 104.215 16.1425 102.716 16.7359 100.527C20.7084 97.0197 25.9302 93.8537 23.67 86.6982C19.1041 87.675 16.8864 90.7729 14.7653 94.4074C14.0043 92.2778 13.4648 90.5855 13.8709 88.5808C18.6384 85.8435 24.1725 83.5549 23.4655 76.1552C18.9791 76.4136 16.0545 78.7306 13.4393 82.1522C13.0332 79.6336 12.7976 77.6715 14.0356 75.7634C18.8315 73.8779 24.3827 72.674 24.8256 65.6065C20.0723 64.8285 16.9035 66.9553 13.3143 71.0669C14.3905 67.7049 14.01 65.3879 16.0346 63.4883C20.4273 61.8556 26.6117 62.1338 27.9774 55.461C26.1943 53.9788 24.5474 54.5723 22.8919 54.7143C21.1087 54.8676 19.6805 56.5656 17.6644 55.9296C17.9086 54.1236 18.3431 52.5506 19.8537 51.5482C30.3285 50.5005 30.6011 50.3755 32.9153 45.4944C29.224 42.9389 25.6548 44.282 21.4324 46.4031C22.8919 43.6289 23.9056 41.6072 25.9926 39.8439C30.9674 41.1188 36.2517 42.5357 39.9998 36.9362C36.672 33.8128 32.9011 35.1275 29.1104 35.0253C30.6948 32.89 31.9243 31.0983 34.2953 30.3174C38.8385 31.9955 43.5605 34.3807 48.2343 29.7495C45.4431 26.4188 41.9335 25.9247 38.069 26.3194C36.9729 22.1624 40.0367 17.2302 35.1074 13.9222C30.3967 18.1275 32.4127 23.0455 33.6593 27.9067L28.8974 32.3902C28.0825 28.6591 27.7134 25.2518 24.5303 23.3436C21.1229 27.6398 21.1229 28.2219 24.925 37.541L21.1315 43.6119C19.7628 39.3924 18.9763 35.7323 14.7568 34.5823C11.1847 40.6929 15.7251 44.5205 18.4311 48.9104C17.5281 50.898 16.6451 52.8686 15.5547 55.2878C13.516 51.7101 12.1928 47.8541 7.51044 47.6212C5.4944 54.1208 10.066 57.3805 13.7346 61.228L11.9656 68.2132C9.55771 64.3004 7.31167 61.3047 2.6606 61.2422C1.65542 68.1308 6.99365 70.6693 10.6452 73.8268V80.3577C7.32303 77.2371 4.19676 75.0677 0 75.3772V77.3932C1.87122 82.2487 5.59946 85.074 10.2477 86.613C11.5084 88.6859 12.1502 90.6536 11.5879 93.3369C8.16352 90.222 4.28762 89.1544 0 89.4923V91.5083C3.03257 96.4121 7.66661 98.8228 13.0048 99.615C14.0072 101.339 14.9527 102.699 14.3337 104.78C10.7105 103.877 7.06748 102.128 3.37899 104.649C6.24403 111.322 12.3035 111.297 18.0279 112.103C18.6469 113.778 20.4358 114.866 19.9133 117.132C15.8188 115.743 12.011 115.065 8.41623 118.296C12.6584 124.341 18.5646 123.725 24.5332 122.839L28.4516 127.999C23.4967 127.459 19.2176 127.03 15.9579 130.838C21.1826 136.801 27.1654 134.367 32.6796 132.871C34.7354 134.021 36.2801 135.086 37.3194 137.099C32.4099 136.983 28.4687 138.07 25.6235 142.17C31.9783 147.185 37.5494 143.772 42.8649 141.157C44.6878 142.009 46.2893 142.534 47.2661 144.377C43.1062 145.677 39.06 147.077 37.1603 151.703C44.1881 155.411 49.2282 151.308 54.1973 147.778C56.1281 148.502 58.005 148.494 59.4588 150.217C54.8958 151.881 51.4628 154.193 50.2277 158.869C56.2388 160.9 57.6586 160.323 67.1964 152.075C71.7623 152.503 76.331 153.65 80.8742 156.212C77.8615 159.088 73.8465 160.232 71.9128 163.765C72.458 164.352 72.8243 165.048 73.1196 165.017C78.1597 164.529 80.3518 158.668 86.1812 158.364C87.8281 159.434 89.8271 160.985 92.0476 162.098C93.9444 163.049 95.1426 167.181 98.5188 163.802C96.4857 160.161 92.4025 159.097 89.5318 156.084C94.217 153.724 98.7545 152.393 103.363 152.109C112.358 160.363 115.289 161.433 120.116 158.355C118.75 153.932 114.942 151.935 110.888 149.888C112.875 148.769 114.392 148.088 116.084 148.082C127.189 154.304 128.544 154.539 133.183 150.939C132.176 149.196 130.7 147.771 128.924 146.824C127.101 145.816 125.133 145.07 122.899 144.059C123.836 143.352 124.44 142.789 125.139 142.392C125.991 141.909 126.914 141.568 127.638 141.242C137.244 145.972 140.415 146.015 144.589 141.486C141.551 138.209 137.667 136.883 132.865 136.983C134.54 135.086 135.722 133.672 138.061 132.945C143.349 134.424 149.269 136.841 154.315 130.744C150.907 126.925 146.523 127.698 141.889 127.783L145.759 123.143C158.137 123.143 159.011 122.859 161.553 117.748C158.086 114.974 154.153 116.118 150.172 116.896C150.516 115.017 151.462 113.301 152.867 112.007C158.298 111.075 164.591 111.328 166.984 104.212C163.009 102.474 159.474 103.928 155.51 104.78C156.013 102.65 156.121 101.015 157.589 99.669C162.666 98.0334 168.663 97.2213 169.699 89.9182C165.414 88.7142 162.299 90.9432 158.983 92.522Z" fill="#3AABE2"/>
<path d="M45.1308 74.7617L44.4588 73.1097H40.2868L39.6148 74.7617H37.3048L41.2108 65.1437H43.5348L47.4408 74.7617H45.1308ZM40.9448 71.4997H43.8008L42.3728 67.9997L40.9448 71.4997ZM52.5857 74.9297C51.7457 74.9297 50.9944 74.7477 50.3317 74.3837C49.6691 74.0104 49.1511 73.4971 48.7777 72.8437C48.4137 72.1811 48.2317 71.4344 48.2317 70.6037V65.1437H50.3037V70.5197C50.3037 71.0051 50.3971 71.4437 50.5837 71.8357C50.7797 72.2184 51.0504 72.5171 51.3957 72.7317C51.7504 72.9464 52.1471 73.0537 52.5857 73.0537C53.0244 73.0537 53.4164 72.9464 53.7617 72.7317C54.1164 72.5171 54.3871 72.2184 54.5737 71.8357C54.7697 71.4437 54.8677 71.0051 54.8677 70.5197V65.1437H56.9397V70.6037C56.9397 71.4344 56.7531 72.1811 56.3797 72.8437C56.0157 73.4971 55.5024 74.0104 54.8397 74.3837C54.1771 74.7477 53.4257 74.9297 52.5857 74.9297ZM61.453 67.0057H58.457V65.1437H66.521V67.0057H63.511V74.7617H61.453V67.0057ZM74.6644 65.1437H76.7364V74.7617H74.6644V70.7857H70.2824V74.7617H68.2244V65.1437H70.2824V68.9237H74.6644V65.1437ZM83.6107 74.9297C82.7054 74.9297 81.8607 74.7057 81.0767 74.2577C80.2927 73.8004 79.6674 73.1891 79.2007 72.4237C78.7341 71.6584 78.5007 70.8324 78.5007 69.9457C78.5007 69.0591 78.7341 68.2377 79.2007 67.4817C79.6674 66.7164 80.2927 66.1097 81.0767 65.6617C81.8607 65.2044 82.7054 64.9757 83.6107 64.9757C84.5161 64.9757 85.3607 65.2044 86.1447 65.6617C86.9287 66.1097 87.5541 66.7164 88.0207 67.4817C88.4874 68.2377 88.7207 69.0591 88.7207 69.9457C88.7207 70.8324 88.4874 71.6584 88.0207 72.4237C87.5541 73.1891 86.9287 73.8004 86.1447 74.2577C85.3607 74.7057 84.5161 74.9297 83.6107 74.9297ZM83.6107 73.0537C84.1427 73.0537 84.6374 72.9137 85.0947 72.6337C85.5521 72.3444 85.9161 71.9617 86.1867 71.4857C86.4574 71.0097 86.5927 70.4964 86.5927 69.9457C86.5927 69.3951 86.4574 68.8864 86.1867 68.4197C85.9161 67.9437 85.5521 67.5657 85.0947 67.2857C84.6374 66.9964 84.1427 66.8517 83.6107 66.8517C83.0881 66.8517 82.5934 66.9964 82.1267 67.2857C81.6694 67.5657 81.3054 67.9437 81.0347 68.4197C80.7641 68.8957 80.6287 69.4044 80.6287 69.9457C80.6287 70.4964 80.7641 71.0097 81.0347 71.4857C81.3054 71.9617 81.6694 72.3444 82.1267 72.6337C82.5934 72.9137 83.0881 73.0537 83.6107 73.0537ZM98.4473 68.3917C98.4473 69.1384 98.228 69.7871 97.7893 70.3377C97.3507 70.8791 96.7673 71.2571 96.0393 71.4717L98.3493 74.7617H95.9973L93.7993 71.6397H92.5533V74.7617H90.4953V65.1437H94.8213C95.512 65.1437 96.1327 65.2837 96.6833 65.5637C97.234 65.8344 97.6633 66.2171 97.9713 66.7117C98.2887 67.2064 98.4473 67.7664 98.4473 68.3917ZM92.5533 69.7497H94.6113C95.1153 69.7497 95.526 69.6284 95.8433 69.3857C96.1607 69.1337 96.3193 68.8024 96.3193 68.3917C96.3193 67.9811 96.1607 67.6544 95.8433 67.4117C95.526 67.1597 95.1153 67.0337 94.6113 67.0337H92.5533V69.7497ZM100.318 65.1437H102.376V74.7617H100.318V65.1437ZM104.267 73.1937L109.321 67.0057H104.379V65.1437H112.163V66.7117L107.109 72.8997H112.219V74.7617H104.281L104.267 73.1937ZM121.532 67.0057H116.198V68.9237H121.028V70.7857H116.198V72.8997H121.532V74.7617H114.126V65.1437H121.532V67.0057ZM127.01 65.1437C128.074 65.1437 129.026 65.3491 129.866 65.7597C130.706 66.1704 131.36 66.7397 131.826 67.4677C132.302 68.1957 132.54 69.0217 132.54 69.9457C132.54 70.8697 132.302 71.7004 131.826 72.4377C131.36 73.1657 130.706 73.7351 129.866 74.1457C129.026 74.5564 128.074 74.7617 127.01 74.7617H123.566V65.1437H127.01ZM127.276 72.8857C127.883 72.8857 128.424 72.7597 128.9 72.5077C129.376 72.2557 129.745 71.9104 130.006 71.4717C130.277 71.0237 130.412 70.5151 130.412 69.9457C130.412 69.3857 130.277 68.8817 130.006 68.4337C129.745 67.9857 129.376 67.6404 128.9 67.3977C128.424 67.1457 127.883 67.0197 127.276 67.0197H125.624V72.8857H127.276Z" fill="#1D1D1F"/>
<path d="M41.9141 83.2737C43.7381 83.2737 45.3701 83.6257 46.8101 84.3297C48.2501 85.0337 49.3701 86.0097 50.1701 87.2577C50.9861 88.5057 51.3941 89.9217 51.3941 91.5057C51.3941 93.0897 50.9861 94.5137 50.1701 95.7777C49.3701 97.0257 48.2501 98.0017 46.8101 98.7057C45.3701 99.4097 43.7381 99.7617 41.9141 99.7617H36.0101V83.2737H41.9141ZM42.3701 96.5457C43.4101 96.5457 44.3381 96.3297 45.1541 95.8977C45.9701 95.4657 46.6021 94.8737 47.0501 94.1217C47.5141 93.3537 47.7461 92.4817 47.7461 91.5057C47.7461 90.5457 47.5141 89.6817 47.0501 88.9137C46.6021 88.1457 45.9701 87.5537 45.1541 87.1377C44.3381 86.7057 43.4101 86.4897 42.3701 86.4897H39.5381V96.5457H42.3701ZM67.1392 86.4657H57.9952V89.7537H66.2752V92.9457H57.9952V96.5697H67.1392V99.7617H54.4432V83.2737H67.1392V86.4657ZM82.9383 99.7617L81.7863 96.9297H74.6343L73.4823 99.7617H69.5223L76.2183 83.2737H80.2023L86.8983 99.7617H82.9383ZM75.7623 94.1697H80.6583L78.2103 88.1697L75.7623 94.1697ZM93.2203 96.5697H101.428V99.7617H89.6923V83.2737H93.2203V96.5697ZM117.071 86.4657H107.927V89.7537H116.207V92.9457H107.927V96.5697H117.071V99.7617H104.375V83.2737H117.071V86.4657ZM134.191 88.8417C134.191 90.1217 133.815 91.2337 133.063 92.1777C132.311 93.1057 131.311 93.7537 130.063 94.1217L134.023 99.7617H129.991L126.223 94.4097H124.087V99.7617H120.559V83.2737H127.975C129.159 83.2737 130.223 83.5137 131.167 83.9937C132.111 84.4577 132.847 85.1137 133.375 85.9617C133.919 86.8097 134.191 87.7697 134.191 88.8417ZM124.087 91.1697H127.615C128.479 91.1697 129.183 90.9617 129.727 90.5457C130.271 90.1137 130.543 89.5457 130.543 88.8417C130.543 88.1377 130.271 87.5777 129.727 87.1617C129.183 86.7297 128.479 86.5137 127.615 86.5137H124.087V91.1697Z" fill="#1D1D1F"/>
</g>
<defs>
<clipPath id="clip0_169_1376">
<rect width="170" height="164.352" fill="white" transform="translate(0 0.761719)"/>
</clipPath>
</defs>
</svg>
